<mxfile host="app.diagrams.net" modified="2023-05-16T20:37:14.636Z" agent="Mozilla/5.0 (Windows NT 10.0; Win64; x64) AppleWebKit/537.36 (KHTML, like Gecko) Chrome/113.0.0.0 Safari/537.36 Edg/113.0.1774.42" etag="zjqj6oOdBT6sVic-QMMH" version="21.3.2" type="device">
  <diagram id="C5RBs43oDa-KdzZeNtuy" name="Page-1">
    <mxGraphModel dx="2206" dy="756" grid="1" gridSize="10" guides="1" tooltips="1" connect="1" arrows="1" fold="1" page="1" pageScale="1" pageWidth="827" pageHeight="1169" math="0" shadow="0">
      <root>
        <mxCell id="WIyWlLk6GJQsqaUBKTNV-0" />
        <mxCell id="WIyWlLk6GJQsqaUBKTNV-1" parent="WIyWlLk6GJQsqaUBKTNV-0" />
        <mxCell id="uIAHhvXqn5fl3VK9sxDS-0" value="Lector" style="swimlane;fontStyle=0;align=center;verticalAlign=top;childLayout=stackLayout;horizontal=1;startSize=26;horizontalStack=0;resizeParent=1;resizeLast=0;collapsible=1;marginBottom=0;rounded=0;shadow=0;strokeWidth=1;fillColor=#000000;strokeColor=#000000;gradientColor=#ffa500;" parent="WIyWlLk6GJQsqaUBKTNV-1" vertex="1">
          <mxGeometry x="-420" y="150" width="160" height="268" as="geometry">
            <mxRectangle x="340" y="380" width="170" height="26" as="alternateBounds" />
          </mxGeometry>
        </mxCell>
        <mxCell id="uIAHhvXqn5fl3VK9sxDS-1" value="-ID-lector: String" style="text;align=left;verticalAlign=top;spacingLeft=4;spacingRight=4;overflow=hidden;rotatable=0;points=[[0,0.5],[1,0.5]];portConstraint=eastwest;fillColor=#000000;strokeColor=#000000;" parent="uIAHhvXqn5fl3VK9sxDS-0" vertex="1">
          <mxGeometry y="26" width="160" height="26" as="geometry" />
        </mxCell>
        <mxCell id="uIAHhvXqn5fl3VK9sxDS-2" value="-estado: Booleano" style="text;align=left;verticalAlign=top;spacingLeft=4;spacingRight=4;overflow=hidden;rotatable=0;points=[[0,0.5],[1,0.5]];portConstraint=eastwest;fillColor=#000000;strokeColor=#000000;" parent="uIAHhvXqn5fl3VK9sxDS-0" vertex="1">
          <mxGeometry y="52" width="160" height="26" as="geometry" />
        </mxCell>
        <mxCell id="uIAHhvXqn5fl3VK9sxDS-14" value="-paisResidencia: String" style="text;align=left;verticalAlign=top;spacingLeft=4;spacingRight=4;overflow=hidden;rotatable=0;points=[[0,0.5],[1,0.5]];portConstraint=eastwest;rounded=0;shadow=0;html=0;fillColor=#000000;strokeColor=#000000;" parent="uIAHhvXqn5fl3VK9sxDS-0" vertex="1">
          <mxGeometry y="78" width="160" height="26" as="geometry" />
        </mxCell>
        <mxCell id="uIAHhvXqn5fl3VK9sxDS-13" value="-estadoCivil: String" style="text;align=left;verticalAlign=top;spacingLeft=4;spacingRight=4;overflow=hidden;rotatable=0;points=[[0,0.5],[1,0.5]];portConstraint=eastwest;rounded=0;shadow=0;html=0;fillColor=#000000;strokeColor=#000000;" parent="uIAHhvXqn5fl3VK9sxDS-0" vertex="1">
          <mxGeometry y="104" width="160" height="26" as="geometry" />
        </mxCell>
        <mxCell id="uIAHhvXqn5fl3VK9sxDS-67" value="- domicilio: String" style="text;align=left;verticalAlign=top;spacingLeft=4;spacingRight=4;overflow=hidden;rotatable=0;points=[[0,0.5],[1,0.5]];portConstraint=eastwest;fillColor=#000000;strokeColor=#000000;" parent="uIAHhvXqn5fl3VK9sxDS-0" vertex="1">
          <mxGeometry y="130" width="160" height="26" as="geometry" />
        </mxCell>
        <mxCell id="uIAHhvXqn5fl3VK9sxDS-3" value="" style="line;html=1;strokeWidth=1;align=left;verticalAlign=middle;spacingTop=-1;spacingLeft=3;spacingRight=3;rotatable=0;labelPosition=right;points=[];portConstraint=eastwest;strokeColor=#000000;fillColor=#000000;" parent="uIAHhvXqn5fl3VK9sxDS-0" vertex="1">
          <mxGeometry y="156" width="160" height="8" as="geometry" />
        </mxCell>
        <mxCell id="uIAHhvXqn5fl3VK9sxDS-4" value="+AgregarLector()" style="text;align=left;verticalAlign=top;spacingLeft=4;spacingRight=4;overflow=hidden;rotatable=0;points=[[0,0.5],[1,0.5]];portConstraint=eastwest;fillColor=#000000;strokeColor=#000000;" parent="uIAHhvXqn5fl3VK9sxDS-0" vertex="1">
          <mxGeometry y="164" width="160" height="26" as="geometry" />
        </mxCell>
        <mxCell id="uIAHhvXqn5fl3VK9sxDS-5" value="+EliminarLector()" style="text;align=left;verticalAlign=top;spacingLeft=4;spacingRight=4;overflow=hidden;rotatable=0;points=[[0,0.5],[1,0.5]];portConstraint=eastwest;fillColor=#000000;strokeColor=#000000;" parent="uIAHhvXqn5fl3VK9sxDS-0" vertex="1">
          <mxGeometry y="190" width="160" height="26" as="geometry" />
        </mxCell>
        <mxCell id="uIAHhvXqn5fl3VK9sxDS-6" value="+ModificarLector()" style="text;align=left;verticalAlign=top;spacingLeft=4;spacingRight=4;overflow=hidden;rotatable=0;points=[[0,0.5],[1,0.5]];portConstraint=eastwest;fillColor=#000000;strokeColor=#000000;" parent="uIAHhvXqn5fl3VK9sxDS-0" vertex="1">
          <mxGeometry y="216" width="160" height="26" as="geometry" />
        </mxCell>
        <mxCell id="uIAHhvXqn5fl3VK9sxDS-7" value="+GetDatosLector()" style="text;align=left;verticalAlign=top;spacingLeft=4;spacingRight=4;overflow=hidden;rotatable=0;points=[[0,0.5],[1,0.5]];portConstraint=eastwest;fillColor=#000000;strokeColor=#000000;" parent="uIAHhvXqn5fl3VK9sxDS-0" vertex="1">
          <mxGeometry y="242" width="160" height="26" as="geometry" />
        </mxCell>
        <mxCell id="uIAHhvXqn5fl3VK9sxDS-8" value="Persona" style="swimlane;fontStyle=2;align=center;verticalAlign=top;childLayout=stackLayout;horizontal=1;startSize=26;horizontalStack=0;resizeParent=1;resizeLast=0;collapsible=1;marginBottom=0;rounded=0;shadow=0;strokeWidth=1;fillColor=#000000;strokeColor=#000000;gradientColor=#ffa500;fontColor=#000000;" parent="WIyWlLk6GJQsqaUBKTNV-1" vertex="1">
          <mxGeometry x="-740" y="100" width="160" height="192" as="geometry">
            <mxRectangle x="230" y="140" width="160" height="26" as="alternateBounds" />
          </mxGeometry>
        </mxCell>
        <mxCell id="uIAHhvXqn5fl3VK9sxDS-9" value="-Identificación: String&#xa;&#xa;" style="text;align=left;verticalAlign=top;spacingLeft=4;spacingRight=4;overflow=hidden;rotatable=0;points=[[0,0.5],[1,0.5]];portConstraint=eastwest;fillColor=#000000;strokeColor=#000000;" parent="uIAHhvXqn5fl3VK9sxDS-8" vertex="1">
          <mxGeometry y="26" width="160" height="24" as="geometry" />
        </mxCell>
        <mxCell id="uIAHhvXqn5fl3VK9sxDS-10" value="-Nombre: string" style="text;align=left;verticalAlign=top;spacingLeft=4;spacingRight=4;overflow=hidden;rotatable=0;points=[[0,0.5],[1,0.5]];portConstraint=eastwest;rounded=0;shadow=0;html=0;fillColor=#000000;strokeColor=#000000;" parent="uIAHhvXqn5fl3VK9sxDS-8" vertex="1">
          <mxGeometry y="50" width="160" height="26" as="geometry" />
        </mxCell>
        <mxCell id="uIAHhvXqn5fl3VK9sxDS-11" value="-nacionalidad: string " style="text;align=left;verticalAlign=top;spacingLeft=4;spacingRight=4;overflow=hidden;rotatable=0;points=[[0,0.5],[1,0.5]];portConstraint=eastwest;rounded=0;shadow=0;html=0;fillColor=#000000;strokeColor=#000000;" parent="uIAHhvXqn5fl3VK9sxDS-8" vertex="1">
          <mxGeometry y="76" width="160" height="26" as="geometry" />
        </mxCell>
        <mxCell id="uIAHhvXqn5fl3VK9sxDS-12" value="-fechaNacimiento: Fecha" style="text;align=left;verticalAlign=top;spacingLeft=4;spacingRight=4;overflow=hidden;rotatable=0;points=[[0,0.5],[1,0.5]];portConstraint=eastwest;rounded=0;shadow=0;html=0;fillColor=#000000;strokeColor=#000000;" parent="uIAHhvXqn5fl3VK9sxDS-8" vertex="1">
          <mxGeometry y="102" width="160" height="26" as="geometry" />
        </mxCell>
        <mxCell id="uIAHhvXqn5fl3VK9sxDS-54" value="- nacionalidad: String" style="text;strokeColor=#000000;fillColor=#000000;align=left;verticalAlign=top;spacingLeft=4;spacingRight=4;overflow=hidden;rotatable=0;points=[[0,0.5],[1,0.5]];portConstraint=eastwest;whiteSpace=wrap;html=1;" parent="uIAHhvXqn5fl3VK9sxDS-8" vertex="1">
          <mxGeometry y="128" width="160" height="26" as="geometry" />
        </mxCell>
        <mxCell id="uIAHhvXqn5fl3VK9sxDS-37" value="" style="line;strokeWidth=1;fillColor=#000000;align=left;verticalAlign=middle;spacingTop=-1;spacingLeft=3;spacingRight=3;rotatable=0;labelPosition=right;points=[];portConstraint=eastwest;strokeColor=#000000;" parent="uIAHhvXqn5fl3VK9sxDS-8" vertex="1">
          <mxGeometry y="154" width="160" height="8" as="geometry" />
        </mxCell>
        <mxCell id="uIAHhvXqn5fl3VK9sxDS-17" value="" style="text;strokeColor=#000000;fillColor=#000000;align=left;verticalAlign=middle;spacingTop=-1;spacingLeft=4;spacingRight=4;rotatable=0;labelPosition=right;points=[];portConstraint=eastwest;" parent="uIAHhvXqn5fl3VK9sxDS-8" vertex="1">
          <mxGeometry y="162" width="160" height="30" as="geometry" />
        </mxCell>
        <mxCell id="uIAHhvXqn5fl3VK9sxDS-18" value="LibroCopia" style="swimlane;fontStyle=0;align=center;verticalAlign=top;childLayout=stackLayout;horizontal=1;startSize=26;horizontalStack=0;resizeParent=1;resizeLast=0;collapsible=1;marginBottom=0;rounded=0;shadow=0;strokeWidth=1;fillColor=#000000;strokeColor=#000000;gradientColor=#ffa500;" parent="WIyWlLk6GJQsqaUBKTNV-1" vertex="1">
          <mxGeometry x="-60" y="10" width="160" height="320" as="geometry">
            <mxRectangle x="550" y="140" width="160" height="26" as="alternateBounds" />
          </mxGeometry>
        </mxCell>
        <mxCell id="uIAHhvXqn5fl3VK9sxDS-19" value="- ID-Libro: String" style="text;align=left;verticalAlign=top;spacingLeft=4;spacingRight=4;overflow=hidden;rotatable=0;points=[[0,0.5],[1,0.5]];portConstraint=eastwest;fillColor=#000000;strokeColor=#000000;" parent="uIAHhvXqn5fl3VK9sxDS-18" vertex="1">
          <mxGeometry y="26" width="160" height="26" as="geometry" />
        </mxCell>
        <mxCell id="uIAHhvXqn5fl3VK9sxDS-69" value="+ nombre: String" style="text;strokeColor=#000000;fillColor=#000000;align=left;verticalAlign=top;spacingLeft=4;spacingRight=4;overflow=hidden;rotatable=0;points=[[0,0.5],[1,0.5]];portConstraint=eastwest;whiteSpace=wrap;html=1;" parent="uIAHhvXqn5fl3VK9sxDS-18" vertex="1">
          <mxGeometry y="52" width="160" height="26" as="geometry" />
        </mxCell>
        <mxCell id="uIAHhvXqn5fl3VK9sxDS-20" value="- activo: Booleano" style="text;align=left;verticalAlign=top;spacingLeft=4;spacingRight=4;overflow=hidden;rotatable=0;points=[[0,0.5],[1,0.5]];portConstraint=eastwest;rounded=0;shadow=0;html=0;fillColor=#000000;strokeColor=#000000;" parent="uIAHhvXqn5fl3VK9sxDS-18" vertex="1">
          <mxGeometry y="78" width="160" height="26" as="geometry" />
        </mxCell>
        <mxCell id="uIAHhvXqn5fl3VK9sxDS-21" value="- categoria: Categoria" style="text;align=left;verticalAlign=top;spacingLeft=4;spacingRight=4;overflow=hidden;rotatable=0;points=[[0,0.5],[1,0.5]];portConstraint=eastwest;rounded=0;shadow=0;html=0;fillColor=#000000;strokeColor=#000000;" parent="uIAHhvXqn5fl3VK9sxDS-18" vertex="1">
          <mxGeometry y="104" width="160" height="26" as="geometry" />
        </mxCell>
        <mxCell id="uIAHhvXqn5fl3VK9sxDS-22" value="- anio: entero " style="text;align=left;verticalAlign=top;spacingLeft=4;spacingRight=4;overflow=hidden;rotatable=0;points=[[0,0.5],[1,0.5]];portConstraint=eastwest;rounded=0;shadow=0;html=0;fillColor=#000000;strokeColor=#000000;" parent="uIAHhvXqn5fl3VK9sxDS-18" vertex="1">
          <mxGeometry y="130" width="160" height="26" as="geometry" />
        </mxCell>
        <mxCell id="uIAHhvXqn5fl3VK9sxDS-57" value="- estado: String" style="text;strokeColor=#000000;fillColor=#000000;align=left;verticalAlign=top;spacingLeft=4;spacingRight=4;overflow=hidden;rotatable=0;points=[[0,0.5],[1,0.5]];portConstraint=eastwest;whiteSpace=wrap;html=1;" parent="uIAHhvXqn5fl3VK9sxDS-18" vertex="1">
          <mxGeometry y="156" width="160" height="26" as="geometry" />
        </mxCell>
        <mxCell id="uIAHhvXqn5fl3VK9sxDS-70" value="- autor: autor" style="text;strokeColor=#000000;fillColor=#000000;align=left;verticalAlign=top;spacingLeft=4;spacingRight=4;overflow=hidden;rotatable=0;points=[[0,0.5],[1,0.5]];portConstraint=eastwest;whiteSpace=wrap;html=1;" parent="uIAHhvXqn5fl3VK9sxDS-18" vertex="1">
          <mxGeometry y="182" width="160" height="26" as="geometry" />
        </mxCell>
        <mxCell id="uIAHhvXqn5fl3VK9sxDS-25" value="" style="line;html=1;strokeWidth=1;align=left;verticalAlign=middle;spacingTop=-1;spacingLeft=3;spacingRight=3;rotatable=0;labelPosition=right;points=[];portConstraint=eastwest;strokeColor=#000000;fillColor=#000000;" parent="uIAHhvXqn5fl3VK9sxDS-18" vertex="1">
          <mxGeometry y="208" width="160" height="8" as="geometry" />
        </mxCell>
        <mxCell id="uIAHhvXqn5fl3VK9sxDS-26" value="+ agregarLibro()" style="text;align=left;verticalAlign=top;spacingLeft=4;spacingRight=4;overflow=hidden;rotatable=0;points=[[0,0.5],[1,0.5]];portConstraint=eastwest;fillColor=#000000;strokeColor=#000000;" parent="uIAHhvXqn5fl3VK9sxDS-18" vertex="1">
          <mxGeometry y="216" width="160" height="26" as="geometry" />
        </mxCell>
        <mxCell id="uIAHhvXqn5fl3VK9sxDS-27" value="+ eliminarLibro()" style="text;strokeColor=#000000;fillColor=#000000;align=left;verticalAlign=top;spacingLeft=4;spacingRight=4;overflow=hidden;rotatable=0;points=[[0,0.5],[1,0.5]];portConstraint=eastwest;whiteSpace=wrap;html=1;" parent="uIAHhvXqn5fl3VK9sxDS-18" vertex="1">
          <mxGeometry y="242" width="160" height="26" as="geometry" />
        </mxCell>
        <mxCell id="uIAHhvXqn5fl3VK9sxDS-28" value="+ modificarEstadoLibro()" style="text;align=left;verticalAlign=top;spacingLeft=4;spacingRight=4;overflow=hidden;rotatable=0;points=[[0,0.5],[1,0.5]];portConstraint=eastwest;fillColor=#000000;strokeColor=#000000;" parent="uIAHhvXqn5fl3VK9sxDS-18" vertex="1">
          <mxGeometry y="268" width="160" height="26" as="geometry" />
        </mxCell>
        <mxCell id="uIAHhvXqn5fl3VK9sxDS-58" value="+GetDatosLibro()" style="text;align=left;verticalAlign=top;spacingLeft=4;spacingRight=4;overflow=hidden;rotatable=0;points=[[0,0.5],[1,0.5]];portConstraint=eastwest;fillColor=#000000;strokeColor=#000000;" parent="uIAHhvXqn5fl3VK9sxDS-18" vertex="1">
          <mxGeometry y="294" width="160" height="26" as="geometry" />
        </mxCell>
        <mxCell id="uIAHhvXqn5fl3VK9sxDS-29" value="Autor" style="swimlane;fontStyle=0;align=center;verticalAlign=top;childLayout=stackLayout;horizontal=1;startSize=26;horizontalStack=0;resizeParent=1;resizeLast=0;collapsible=1;marginBottom=0;rounded=0;shadow=0;strokeWidth=1;fillColor=#000000;strokeColor=#000000;gradientColor=#ffa500;" parent="WIyWlLk6GJQsqaUBKTNV-1" vertex="1">
          <mxGeometry x="-640" y="490" width="160" height="190" as="geometry">
            <mxRectangle x="340" y="380" width="170" height="26" as="alternateBounds" />
          </mxGeometry>
        </mxCell>
        <mxCell id="uIAHhvXqn5fl3VK9sxDS-30" value="-ID-autor: String" style="text;align=left;verticalAlign=top;spacingLeft=4;spacingRight=4;overflow=hidden;rotatable=0;points=[[0,0.5],[1,0.5]];portConstraint=eastwest;fillColor=#000000;strokeColor=#000000;" parent="uIAHhvXqn5fl3VK9sxDS-29" vertex="1">
          <mxGeometry y="26" width="160" height="26" as="geometry" />
        </mxCell>
        <mxCell id="uIAHhvXqn5fl3VK9sxDS-31" value="-estado: Booleano" style="text;align=left;verticalAlign=top;spacingLeft=4;spacingRight=4;overflow=hidden;rotatable=0;points=[[0,0.5],[1,0.5]];portConstraint=eastwest;fillColor=#000000;strokeColor=#000000;" parent="uIAHhvXqn5fl3VK9sxDS-29" vertex="1">
          <mxGeometry y="52" width="160" height="26" as="geometry" />
        </mxCell>
        <mxCell id="uIAHhvXqn5fl3VK9sxDS-32" value="" style="line;html=1;strokeWidth=1;align=left;verticalAlign=middle;spacingTop=-1;spacingLeft=3;spacingRight=3;rotatable=0;labelPosition=right;points=[];portConstraint=eastwest;strokeColor=#000000;fillColor=#000000;" parent="uIAHhvXqn5fl3VK9sxDS-29" vertex="1">
          <mxGeometry y="78" width="160" height="8" as="geometry" />
        </mxCell>
        <mxCell id="uIAHhvXqn5fl3VK9sxDS-33" value="+AgregarAutor()" style="text;align=left;verticalAlign=top;spacingLeft=4;spacingRight=4;overflow=hidden;rotatable=0;points=[[0,0.5],[1,0.5]];portConstraint=eastwest;fillColor=#000000;strokeColor=#000000;" parent="uIAHhvXqn5fl3VK9sxDS-29" vertex="1">
          <mxGeometry y="86" width="160" height="26" as="geometry" />
        </mxCell>
        <mxCell id="uIAHhvXqn5fl3VK9sxDS-34" value="+EliminarAutor()" style="text;align=left;verticalAlign=top;spacingLeft=4;spacingRight=4;overflow=hidden;rotatable=0;points=[[0,0.5],[1,0.5]];portConstraint=eastwest;fillColor=#000000;strokeColor=#000000;" parent="uIAHhvXqn5fl3VK9sxDS-29" vertex="1">
          <mxGeometry y="112" width="160" height="26" as="geometry" />
        </mxCell>
        <mxCell id="uIAHhvXqn5fl3VK9sxDS-35" value="+ModificarAutor()" style="text;align=left;verticalAlign=top;spacingLeft=4;spacingRight=4;overflow=hidden;rotatable=0;points=[[0,0.5],[1,0.5]];portConstraint=eastwest;fillColor=#000000;strokeColor=#000000;" parent="uIAHhvXqn5fl3VK9sxDS-29" vertex="1">
          <mxGeometry y="138" width="160" height="26" as="geometry" />
        </mxCell>
        <mxCell id="uIAHhvXqn5fl3VK9sxDS-36" value="+GetDatosAutor()" style="text;align=left;verticalAlign=top;spacingLeft=4;spacingRight=4;overflow=hidden;rotatable=0;points=[[0,0.5],[1,0.5]];portConstraint=eastwest;fillColor=#000000;strokeColor=#000000;" parent="uIAHhvXqn5fl3VK9sxDS-29" vertex="1">
          <mxGeometry y="164" width="160" height="26" as="geometry" />
        </mxCell>
        <mxCell id="uIAHhvXqn5fl3VK9sxDS-38" value="Categoría" style="swimlane;fontStyle=0;align=center;verticalAlign=top;childLayout=stackLayout;horizontal=1;startSize=26;horizontalStack=0;resizeParent=1;resizeLast=0;collapsible=1;marginBottom=0;rounded=0;shadow=0;strokeWidth=1;fillColor=#000000;strokeColor=#000000;gradientColor=#ffa500;" parent="WIyWlLk6GJQsqaUBKTNV-1" vertex="1">
          <mxGeometry x="230" y="228" width="160" height="190" as="geometry">
            <mxRectangle x="340" y="380" width="170" height="26" as="alternateBounds" />
          </mxGeometry>
        </mxCell>
        <mxCell id="uIAHhvXqn5fl3VK9sxDS-39" value="-ID-categoria: String" style="text;align=left;verticalAlign=top;spacingLeft=4;spacingRight=4;overflow=hidden;rotatable=0;points=[[0,0.5],[1,0.5]];portConstraint=eastwest;fillColor=#000000;strokeColor=#000000;" parent="uIAHhvXqn5fl3VK9sxDS-38" vertex="1">
          <mxGeometry y="26" width="160" height="26" as="geometry" />
        </mxCell>
        <mxCell id="uIAHhvXqn5fl3VK9sxDS-40" value="-estado: Booleano" style="text;align=left;verticalAlign=top;spacingLeft=4;spacingRight=4;overflow=hidden;rotatable=0;points=[[0,0.5],[1,0.5]];portConstraint=eastwest;fillColor=#000000;strokeColor=#000000;" parent="uIAHhvXqn5fl3VK9sxDS-38" vertex="1">
          <mxGeometry y="52" width="160" height="26" as="geometry" />
        </mxCell>
        <mxCell id="uIAHhvXqn5fl3VK9sxDS-41" value="" style="line;html=1;strokeWidth=1;align=left;verticalAlign=middle;spacingTop=-1;spacingLeft=3;spacingRight=3;rotatable=0;labelPosition=right;points=[];portConstraint=eastwest;strokeColor=#000000;fillColor=#000000;" parent="uIAHhvXqn5fl3VK9sxDS-38" vertex="1">
          <mxGeometry y="78" width="160" height="8" as="geometry" />
        </mxCell>
        <mxCell id="uIAHhvXqn5fl3VK9sxDS-42" value="+AgregarCategoria()" style="text;align=left;verticalAlign=top;spacingLeft=4;spacingRight=4;overflow=hidden;rotatable=0;points=[[0,0.5],[1,0.5]];portConstraint=eastwest;fillColor=#000000;strokeColor=#000000;" parent="uIAHhvXqn5fl3VK9sxDS-38" vertex="1">
          <mxGeometry y="86" width="160" height="26" as="geometry" />
        </mxCell>
        <mxCell id="uIAHhvXqn5fl3VK9sxDS-43" value="+EliminarCategoria()" style="text;align=left;verticalAlign=top;spacingLeft=4;spacingRight=4;overflow=hidden;rotatable=0;points=[[0,0.5],[1,0.5]];portConstraint=eastwest;fillColor=#000000;strokeColor=#000000;" parent="uIAHhvXqn5fl3VK9sxDS-38" vertex="1">
          <mxGeometry y="112" width="160" height="26" as="geometry" />
        </mxCell>
        <mxCell id="uIAHhvXqn5fl3VK9sxDS-44" value="+ModificarCategoria()" style="text;align=left;verticalAlign=top;spacingLeft=4;spacingRight=4;overflow=hidden;rotatable=0;points=[[0,0.5],[1,0.5]];portConstraint=eastwest;fillColor=#000000;strokeColor=#000000;" parent="uIAHhvXqn5fl3VK9sxDS-38" vertex="1">
          <mxGeometry y="138" width="160" height="26" as="geometry" />
        </mxCell>
        <mxCell id="uIAHhvXqn5fl3VK9sxDS-45" value="+GetDatosCategoria()" style="text;align=left;verticalAlign=top;spacingLeft=4;spacingRight=4;overflow=hidden;rotatable=0;points=[[0,0.5],[1,0.5]];portConstraint=eastwest;fillColor=#000000;strokeColor=#000000;" parent="uIAHhvXqn5fl3VK9sxDS-38" vertex="1">
          <mxGeometry y="164" width="160" height="26" as="geometry" />
        </mxCell>
        <mxCell id="uIAHhvXqn5fl3VK9sxDS-46" value="prestamoLibro" style="swimlane;fontStyle=0;align=center;verticalAlign=top;childLayout=stackLayout;horizontal=1;startSize=26;horizontalStack=0;resizeParent=1;resizeLast=0;collapsible=1;marginBottom=0;rounded=0;shadow=0;strokeWidth=1;fillColor=#000000;strokeColor=#000000;gradientColor=#ffa500;" parent="WIyWlLk6GJQsqaUBKTNV-1" vertex="1">
          <mxGeometry x="-209" y="410" width="190" height="268" as="geometry">
            <mxRectangle x="340" y="380" width="170" height="26" as="alternateBounds" />
          </mxGeometry>
        </mxCell>
        <mxCell id="uIAHhvXqn5fl3VK9sxDS-73" value="de" style="endArrow=block;endFill=1;html=1;edgeStyle=orthogonalEdgeStyle;align=left;verticalAlign=top;rounded=0;strokeColor=#000000;fillColor=#000000;" parent="uIAHhvXqn5fl3VK9sxDS-46" edge="1">
          <mxGeometry x="0.0278" y="10" relative="1" as="geometry">
            <mxPoint x="59" y="-2" as="sourcePoint" />
            <mxPoint x="139" y="-210" as="targetPoint" />
            <Array as="points">
              <mxPoint x="59" y="-210" />
              <mxPoint x="120" y="-210" />
            </Array>
            <mxPoint as="offset" />
          </mxGeometry>
        </mxCell>
        <mxCell id="uIAHhvXqn5fl3VK9sxDS-74" value="1" style="edgeLabel;resizable=0;html=1;align=left;verticalAlign=bottom;strokeColor=#000000;fillColor=#000000;" parent="uIAHhvXqn5fl3VK9sxDS-73" connectable="0" vertex="1">
          <mxGeometry x="-1" relative="1" as="geometry" />
        </mxCell>
        <mxCell id="uIAHhvXqn5fl3VK9sxDS-47" value="-ID-pasajero: String" style="text;align=left;verticalAlign=top;spacingLeft=4;spacingRight=4;overflow=hidden;rotatable=0;points=[[0,0.5],[1,0.5]];portConstraint=eastwest;fillColor=#000000;strokeColor=#000000;" parent="uIAHhvXqn5fl3VK9sxDS-46" vertex="1">
          <mxGeometry y="26" width="190" height="26" as="geometry" />
        </mxCell>
        <mxCell id="uIAHhvXqn5fl3VK9sxDS-82" value="ID:-Libro: String" style="text;strokeColor=#000000;fillColor=#000000;align=left;verticalAlign=top;spacingLeft=4;spacingRight=4;overflow=hidden;rotatable=0;points=[[0,0.5],[1,0.5]];portConstraint=eastwest;whiteSpace=wrap;html=1;" parent="uIAHhvXqn5fl3VK9sxDS-46" vertex="1">
          <mxGeometry y="52" width="190" height="26" as="geometry" />
        </mxCell>
        <mxCell id="uIAHhvXqn5fl3VK9sxDS-48" value="-estado: Booleano" style="text;align=left;verticalAlign=top;spacingLeft=4;spacingRight=4;overflow=hidden;rotatable=0;points=[[0,0.5],[1,0.5]];portConstraint=eastwest;fillColor=#000000;strokeColor=#000000;" parent="uIAHhvXqn5fl3VK9sxDS-46" vertex="1">
          <mxGeometry y="78" width="190" height="26" as="geometry" />
        </mxCell>
        <mxCell id="uIAHhvXqn5fl3VK9sxDS-83" value="- fechaSolicitud: fecha" style="text;strokeColor=#000000;fillColor=#000000;align=left;verticalAlign=top;spacingLeft=4;spacingRight=4;overflow=hidden;rotatable=0;points=[[0,0.5],[1,0.5]];portConstraint=eastwest;whiteSpace=wrap;html=1;" parent="uIAHhvXqn5fl3VK9sxDS-46" vertex="1">
          <mxGeometry y="104" width="190" height="26" as="geometry" />
        </mxCell>
        <mxCell id="uIAHhvXqn5fl3VK9sxDS-84" value="- fechaMaximaDevolucion: fecha" style="text;strokeColor=#000000;fillColor=#000000;align=left;verticalAlign=top;spacingLeft=4;spacingRight=4;overflow=hidden;rotatable=0;points=[[0,0.5],[1,0.5]];portConstraint=eastwest;whiteSpace=wrap;html=1;" parent="uIAHhvXqn5fl3VK9sxDS-46" vertex="1">
          <mxGeometry y="130" width="190" height="26" as="geometry" />
        </mxCell>
        <mxCell id="uIAHhvXqn5fl3VK9sxDS-49" value="" style="line;html=1;strokeWidth=1;align=left;verticalAlign=middle;spacingTop=-1;spacingLeft=3;spacingRight=3;rotatable=0;labelPosition=right;points=[];portConstraint=eastwest;strokeColor=#000000;fillColor=#000000;" parent="uIAHhvXqn5fl3VK9sxDS-46" vertex="1">
          <mxGeometry y="156" width="190" height="8" as="geometry" />
        </mxCell>
        <mxCell id="uIAHhvXqn5fl3VK9sxDS-50" value="+CrearPrestamo()" style="text;align=left;verticalAlign=top;spacingLeft=4;spacingRight=4;overflow=hidden;rotatable=0;points=[[0,0.5],[1,0.5]];portConstraint=eastwest;fillColor=#000000;strokeColor=#000000;" parent="uIAHhvXqn5fl3VK9sxDS-46" vertex="1">
          <mxGeometry y="164" width="190" height="26" as="geometry" />
        </mxCell>
        <mxCell id="uIAHhvXqn5fl3VK9sxDS-51" value="+EliminarPrestamo()" style="text;align=left;verticalAlign=top;spacingLeft=4;spacingRight=4;overflow=hidden;rotatable=0;points=[[0,0.5],[1,0.5]];portConstraint=eastwest;fillColor=#000000;strokeColor=#000000;" parent="uIAHhvXqn5fl3VK9sxDS-46" vertex="1">
          <mxGeometry y="190" width="190" height="26" as="geometry" />
        </mxCell>
        <mxCell id="uIAHhvXqn5fl3VK9sxDS-52" value="+ModificarPrestamo()" style="text;align=left;verticalAlign=top;spacingLeft=4;spacingRight=4;overflow=hidden;rotatable=0;points=[[0,0.5],[1,0.5]];portConstraint=eastwest;fillColor=#000000;strokeColor=#000000;" parent="uIAHhvXqn5fl3VK9sxDS-46" vertex="1">
          <mxGeometry y="216" width="190" height="26" as="geometry" />
        </mxCell>
        <mxCell id="uIAHhvXqn5fl3VK9sxDS-53" value="+GetDatosPrestamo()" style="text;align=left;verticalAlign=top;spacingLeft=4;spacingRight=4;overflow=hidden;rotatable=0;points=[[0,0.5],[1,0.5]];portConstraint=eastwest;fillColor=#000000;strokeColor=#000000;" parent="uIAHhvXqn5fl3VK9sxDS-46" vertex="1">
          <mxGeometry y="242" width="190" height="26" as="geometry" />
        </mxCell>
        <mxCell id="uIAHhvXqn5fl3VK9sxDS-55" value="Hereda de la clase" style="endArrow=block;endSize=16;endFill=0;html=1;rounded=0;exitX=0.631;exitY=0.005;exitDx=0;exitDy=0;exitPerimeter=0;strokeColor=#000000;fillColor=#000000;" parent="WIyWlLk6GJQsqaUBKTNV-1" source="uIAHhvXqn5fl3VK9sxDS-29" edge="1">
          <mxGeometry width="160" relative="1" as="geometry">
            <mxPoint x="-540" y="480" as="sourcePoint" />
            <mxPoint x="-570" y="230" as="targetPoint" />
            <Array as="points">
              <mxPoint x="-540" y="230" />
            </Array>
          </mxGeometry>
        </mxCell>
        <mxCell id="uIAHhvXqn5fl3VK9sxDS-56" value="Hereda de la clase" style="endArrow=block;endSize=16;endFill=0;html=1;rounded=0;strokeColor=#000000;fillColor=#000000;" parent="WIyWlLk6GJQsqaUBKTNV-1" edge="1">
          <mxGeometry width="160" relative="1" as="geometry">
            <mxPoint x="-420" y="174.5" as="sourcePoint" />
            <mxPoint x="-580" y="174.5" as="targetPoint" />
          </mxGeometry>
        </mxCell>
        <mxCell id="uIAHhvXqn5fl3VK9sxDS-59" value="Editorial" style="swimlane;fontStyle=0;align=center;verticalAlign=top;childLayout=stackLayout;horizontal=1;startSize=26;horizontalStack=0;resizeParent=1;resizeLast=0;collapsible=1;marginBottom=0;rounded=0;shadow=0;strokeWidth=1;fillColor=#000000;strokeColor=#000000;gradientColor=#ffa500;" parent="WIyWlLk6GJQsqaUBKTNV-1" vertex="1">
          <mxGeometry x="230" y="20" width="160" height="190" as="geometry">
            <mxRectangle x="340" y="380" width="170" height="26" as="alternateBounds" />
          </mxGeometry>
        </mxCell>
        <mxCell id="uIAHhvXqn5fl3VK9sxDS-60" value="-ID-editorial: String" style="text;align=left;verticalAlign=top;spacingLeft=4;spacingRight=4;overflow=hidden;rotatable=0;points=[[0,0.5],[1,0.5]];portConstraint=eastwest;fillColor=#000000;strokeColor=#000000;" parent="uIAHhvXqn5fl3VK9sxDS-59" vertex="1">
          <mxGeometry y="26" width="160" height="26" as="geometry" />
        </mxCell>
        <mxCell id="uIAHhvXqn5fl3VK9sxDS-61" value="-estado: Booleano" style="text;align=left;verticalAlign=top;spacingLeft=4;spacingRight=4;overflow=hidden;rotatable=0;points=[[0,0.5],[1,0.5]];portConstraint=eastwest;fillColor=#000000;strokeColor=#000000;" parent="uIAHhvXqn5fl3VK9sxDS-59" vertex="1">
          <mxGeometry y="52" width="160" height="26" as="geometry" />
        </mxCell>
        <mxCell id="uIAHhvXqn5fl3VK9sxDS-62" value="" style="line;html=1;strokeWidth=1;align=left;verticalAlign=middle;spacingTop=-1;spacingLeft=3;spacingRight=3;rotatable=0;labelPosition=right;points=[];portConstraint=eastwest;strokeColor=#000000;fillColor=#000000;" parent="uIAHhvXqn5fl3VK9sxDS-59" vertex="1">
          <mxGeometry y="78" width="160" height="8" as="geometry" />
        </mxCell>
        <mxCell id="uIAHhvXqn5fl3VK9sxDS-63" value="+AgregarEditorial()" style="text;align=left;verticalAlign=top;spacingLeft=4;spacingRight=4;overflow=hidden;rotatable=0;points=[[0,0.5],[1,0.5]];portConstraint=eastwest;fillColor=#000000;strokeColor=#000000;" parent="uIAHhvXqn5fl3VK9sxDS-59" vertex="1">
          <mxGeometry y="86" width="160" height="26" as="geometry" />
        </mxCell>
        <mxCell id="uIAHhvXqn5fl3VK9sxDS-64" value="+EliminarEditorial()" style="text;align=left;verticalAlign=top;spacingLeft=4;spacingRight=4;overflow=hidden;rotatable=0;points=[[0,0.5],[1,0.5]];portConstraint=eastwest;fillColor=#000000;strokeColor=#000000;" parent="uIAHhvXqn5fl3VK9sxDS-59" vertex="1">
          <mxGeometry y="112" width="160" height="26" as="geometry" />
        </mxCell>
        <mxCell id="uIAHhvXqn5fl3VK9sxDS-65" value="+ModificarEditorial()" style="text;align=left;verticalAlign=top;spacingLeft=4;spacingRight=4;overflow=hidden;rotatable=0;points=[[0,0.5],[1,0.5]];portConstraint=eastwest;fillColor=#000000;strokeColor=#000000;" parent="uIAHhvXqn5fl3VK9sxDS-59" vertex="1">
          <mxGeometry y="138" width="160" height="26" as="geometry" />
        </mxCell>
        <mxCell id="uIAHhvXqn5fl3VK9sxDS-66" value="+GetDatosEditorial()" style="text;align=left;verticalAlign=top;spacingLeft=4;spacingRight=4;overflow=hidden;rotatable=0;points=[[0,0.5],[1,0.5]];portConstraint=eastwest;fillColor=#000000;strokeColor=#000000;" parent="uIAHhvXqn5fl3VK9sxDS-59" vertex="1">
          <mxGeometry y="164" width="160" height="26" as="geometry" />
        </mxCell>
        <mxCell id="uIAHhvXqn5fl3VK9sxDS-71" value="solicita un&amp;nbsp;" style="endArrow=block;endFill=1;html=1;edgeStyle=orthogonalEdgeStyle;align=left;verticalAlign=top;rounded=0;strokeColor=#000000;fillColor=#000000;" parent="WIyWlLk6GJQsqaUBKTNV-1" edge="1">
          <mxGeometry x="0.1" y="10" relative="1" as="geometry">
            <mxPoint x="-350" y="420" as="sourcePoint" />
            <mxPoint x="-220" y="490" as="targetPoint" />
            <Array as="points">
              <mxPoint x="-350" y="490" />
            </Array>
            <mxPoint as="offset" />
          </mxGeometry>
        </mxCell>
        <mxCell id="uIAHhvXqn5fl3VK9sxDS-72" value="1 ..3" style="edgeLabel;resizable=0;html=1;align=left;verticalAlign=bottom;strokeColor=#000000;fillColor=#000000;" parent="uIAHhvXqn5fl3VK9sxDS-71" connectable="0" vertex="1">
          <mxGeometry x="-1" relative="1" as="geometry">
            <mxPoint x="110" y="68" as="offset" />
          </mxGeometry>
        </mxCell>
        <mxCell id="uIAHhvXqn5fl3VK9sxDS-75" value="se le asigna" style="endArrow=block;endFill=1;html=1;edgeStyle=orthogonalEdgeStyle;align=left;verticalAlign=top;rounded=0;strokeColor=#000000;fillColor=#000000;" parent="WIyWlLk6GJQsqaUBKTNV-1" edge="1">
          <mxGeometry x="-0.3846" y="10" relative="1" as="geometry">
            <mxPoint x="100" y="60" as="sourcePoint" />
            <mxPoint x="230" y="60" as="targetPoint" />
            <mxPoint as="offset" />
          </mxGeometry>
        </mxCell>
        <mxCell id="uIAHhvXqn5fl3VK9sxDS-76" value="1" style="edgeLabel;resizable=0;html=1;align=left;verticalAlign=bottom;strokeColor=#000000;fillColor=#000000;" parent="uIAHhvXqn5fl3VK9sxDS-75" connectable="0" vertex="1">
          <mxGeometry x="-1" relative="1" as="geometry" />
        </mxCell>
        <mxCell id="uIAHhvXqn5fl3VK9sxDS-77" value="se le asigna" style="endArrow=block;endFill=1;html=1;edgeStyle=orthogonalEdgeStyle;align=left;verticalAlign=top;rounded=0;strokeColor=#000000;fillColor=#000000;" parent="WIyWlLk6GJQsqaUBKTNV-1" edge="1">
          <mxGeometry x="-0.3887" y="15" relative="1" as="geometry">
            <mxPoint x="100" y="254.5" as="sourcePoint" />
            <mxPoint x="230" y="255" as="targetPoint" />
            <mxPoint as="offset" />
          </mxGeometry>
        </mxCell>
        <mxCell id="uIAHhvXqn5fl3VK9sxDS-78" value="1" style="edgeLabel;resizable=0;html=1;align=left;verticalAlign=bottom;strokeColor=#000000;fillColor=#000000;" parent="uIAHhvXqn5fl3VK9sxDS-77" connectable="0" vertex="1">
          <mxGeometry x="-1" relative="1" as="geometry" />
        </mxCell>
        <mxCell id="uIAHhvXqn5fl3VK9sxDS-80" value="1" style="edgeLabel;resizable=0;html=1;align=left;verticalAlign=bottom;strokeColor=#000000;fillColor=#000000;" parent="WIyWlLk6GJQsqaUBKTNV-1" connectable="0" vertex="1">
          <mxGeometry x="210" y="60" as="geometry" />
        </mxCell>
        <mxCell id="uIAHhvXqn5fl3VK9sxDS-81" value="1" style="edgeLabel;resizable=0;html=1;align=left;verticalAlign=bottom;strokeColor=#000000;fillColor=#000000;" parent="WIyWlLk6GJQsqaUBKTNV-1" connectable="0" vertex="1">
          <mxGeometry x="150" y="170" as="geometry">
            <mxPoint x="64" y="85" as="offset" />
          </mxGeometry>
        </mxCell>
        <mxCell id="uIAHhvXqn5fl3VK9sxDS-85" value="1" style="text;html=1;align=center;verticalAlign=middle;resizable=0;points=[];autosize=1;strokeColor=#000000;fillColor=#000000;" parent="WIyWlLk6GJQsqaUBKTNV-1" vertex="1">
          <mxGeometry x="-355" y="418" width="30" height="30" as="geometry" />
        </mxCell>
        <mxCell id="uIAHhvXqn5fl3VK9sxDS-86" value="1" style="edgeLabel;resizable=0;html=1;align=left;verticalAlign=bottom;strokeColor=#000000;fillColor=#000000;" parent="WIyWlLk6GJQsqaUBKTNV-1" connectable="0" vertex="1">
          <mxGeometry x="-114" y="400" as="geometry">
            <mxPoint x="26" y="-181" as="offset" />
          </mxGeometry>
        </mxCell>
      </root>
    </mxGraphModel>
  </diagram>
</mxfile>
